<svg xmlns="http://www.w3.org/2000/svg" width="512" height="512" viewBox="0 0 512 512" version="1.1"><path d="M 138 154.500 L 138 184 181 184 L 224 184 224 202.500 C 224 212.675, 223.607 221, 223.127 221 C 222.647 221, 211.959 221.921, 199.377 223.046 C 167.218 225.922, 140.480 231.153, 123.245 237.941 C 110.548 242.942, 110.191 243.167, 105.601 249.078 L 100.916 255.111 105.875 261.305 C 110.824 267.487, 110.864 267.511, 124.667 272.688 C 142.756 279.473, 166.963 284.163, 198.335 286.962 C 210.895 288.083, 221.807 289, 222.585 289 C 223.789 289, 224 298.082, 224 350.014 L 224 411.028 255.750 410.764 L 287.500 410.500 287.758 349.750 C 287.940 306.808, 288.334 289, 289.103 289 C 289.701 289, 300.611 288.063, 313.345 286.919 C 345.196 284.055, 370.990 278.976, 388.500 272.120 C 401.018 267.218, 401.658 266.824, 405.750 261.508 C 408.087 258.471, 410 255.513, 410 254.935 C 410 254.357, 408.087 251.468, 405.750 248.517 C 401.725 243.434, 400.813 242.878, 388.500 238.008 C 371.055 231.109, 344.697 225.935, 312.345 223.058 C 299.611 221.926, 288.923 221, 288.595 221 C 288.268 221, 288 212.675, 288 202.500 L 288 184 331 184 L 374 184 374 154.500 L 374 125 256 125 L 138 125 138 154.500 M 198 227.983 C 172.723 230.259, 151.519 234.080, 136.322 239.097 C 125.057 242.816, 123.870 243.453, 120.479 247.591 L 116.813 252.065 119.473 255.553 C 123.062 260.258, 124.833 261.267, 136.747 265.387 C 168.831 276.482, 243.395 281.744, 302.500 277.084 C 336.212 274.426, 360.184 270.453, 376.111 264.885 C 386.553 261.235, 388.098 260.376, 391.449 256.367 L 395.176 251.909 391.338 247.632 C 383.482 238.876, 354.814 231.731, 312.500 227.984 C 300.400 226.912, 289.938 226.027, 289.250 226.018 C 288.289 226.004, 288 230.830, 288 246.864 L 288 267.728 283.360 268.364 C 280.809 268.714, 268.496 269, 256 269 C 243.504 269, 231.191 268.714, 228.640 268.364 L 224 267.728 224 246.864 L 224 226 220.750 226.113 C 218.963 226.175, 208.725 227.017, 198 227.983" stroke="none" fill="#fafbfa" fill-rule="evenodd"/><path d="M 231.500 1 C 200.853 4.297, 171.634 12.681, 144.500 25.963 C 117.433 39.212, 99.866 51.493, 78.647 72 C 56.155 93.737, 40.291 115.381, 26.970 142.500 C 8.971 179.143, 1.532 209.167, 0.332 250 C -1.097 298.624, 11.069 345.333, 36.354 388.295 C 49.685 410.946, 74.062 438.995, 95.228 456.037 C 131.124 484.939, 173.849 503.568, 220.206 510.531 C 234.033 512.608, 278.521 512.548, 292.872 510.434 C 403.673 494.109, 490.879 409.164, 509.422 299.500 C 513.558 275.035, 513.989 243.408, 510.505 220 C 508.349 205.519, 502.278 181.389, 497.530 168.435 C 489.038 145.264, 472.905 116.477, 457.308 96.663 C 450.037 87.427, 425.573 62.963, 416.337 55.692 C 396.533 40.103, 367.868 24.036, 344.500 15.427 C 331.736 10.725, 307.783 4.710, 293 2.496 C 279.839 0.524, 244.021 -0.348, 231.500 1 M 138 154.500 L 138 184 181 184 L 224 184 224 202.500 C 224 212.675, 223.607 221, 223.127 221 C 222.647 221, 211.959 221.921, 199.377 223.046 C 167.218 225.922, 140.480 231.153, 123.245 237.941 C 110.548 242.942, 110.191 243.167, 105.601 249.078 L 100.916 255.111 105.875 261.305 C 110.824 267.487, 110.864 267.511, 124.667 272.688 C 142.756 279.473, 166.963 284.163, 198.335 286.962 C 210.895 288.083, 221.807 289, 222.585 289 C 223.789 289, 224 298.082, 224 350.014 L 224 411.028 255.750 410.764 L 287.500 410.500 287.758 349.750 C 287.940 306.808, 288.334 289, 289.103 289 C 289.701 289, 300.611 288.063, 313.345 286.919 C 345.196 284.055, 370.990 278.976, 388.500 272.120 C 401.018 267.218, 401.658 266.824, 405.750 261.508 C 408.087 258.471, 410 255.513, 410 254.935 C 410 254.357, 408.087 251.468, 405.750 248.517 C 401.725 243.434, 400.813 242.878, 388.500 238.008 C 371.055 231.109, 344.697 225.935, 312.345 223.058 C 299.611 221.926, 288.923 221, 288.595 221 C 288.268 221, 288 212.675, 288 202.500 L 288 184 331 184 L 374 184 374 154.500 L 374 125 256 125 L 138 125 138 154.500 M 198 227.983 C 172.723 230.259, 151.519 234.080, 136.322 239.097 C 125.057 242.816, 123.870 243.453, 120.479 247.591 L 116.813 252.065 119.473 255.553 C 123.062 260.258, 124.833 261.267, 136.747 265.387 C 168.831 276.482, 243.395 281.744, 302.500 277.084 C 336.212 274.426, 360.184 270.453, 376.111 264.885 C 386.553 261.235, 388.098 260.376, 391.449 256.367 L 395.176 251.909 391.338 247.632 C 383.482 238.876, 354.814 231.731, 312.500 227.984 C 300.400 226.912, 289.938 226.027, 289.250 226.018 C 288.289 226.004, 288 230.830, 288 246.864 L 288 267.728 283.360 268.364 C 280.809 268.714, 268.496 269, 256 269 C 243.504 269, 231.191 268.714, 228.640 268.364 L 224 267.728 224 246.864 L 224 226 220.750 226.113 C 218.963 226.175, 208.725 227.017, 198 227.983 M 0.415 257 C 0.415 267.175, 0.564 271.337, 0.745 266.250 C 0.927 261.162, 0.927 252.837, 0.745 247.750 C 0.564 242.662, 0.415 246.825, 0.415 257" stroke="none" fill="#24a47c" fill-rule="evenodd"/></svg>