<svg xmlns="http://www.w3.org/2000/svg" height="24" viewBox="0 0 24 24" fill="none" stroke="currentColor" stroke-width="1" stroke-linecap="round" stroke-linejoin="round" class="inline w-6 h-auto">
  <circle cx="12" cy="12" r="10" />
  <path d="M12 2c-5.523 0-10 4.477-10 10s4.477 10 10 10 10-4.477 10-10-4.477-10-10-10zm0 6c-1.122 0-2 .878-2 2s.878 2 2 2 2-.878 2-2-.878-2-2-2zm0 12c-3.313 0-6-2.687-6-6s2.687-6 6-6 6 2.687 6 6-2.687 6-6 6zm0-9c-1.654 0-3 1.346-3 3s1.346 3 3 3 3-1.346 3-3-1.346-3-3-3z" />
</svg>
